<?xml version="1.0" encoding="utf-8"?>
<!-- Generator: Adobe Illustrator 24.0.0, SVG Export Plug-In . SVG Version: 6.00 Build 0)  -->
<svg version="1.1" xmlns="http://www.w3.org/2000/svg" xmlns:xlink="http://www.w3.org/1999/xlink" x="0px" y="0px"
	 viewBox="0 0 192 192" style="enable-background:new 0 0 192 192;" xml:space="preserve">
<style type="text/css">
	.st0{display:none;}
	.st1{fill:#FFFFFF;}
</style>
<g id="图层_2" class="st0">
	
		<image style="display:inline;overflow:visible;" width="168" height="168" xlink:href="E81A9203.png"  transform="matrix(1 0 0 1 14.3706 12)">
	</image>
</g>
<g id="图层_3">
</g>
<g id="图层_4">
	<g>
		<g>
			<path class="st1" d="M35.8,157.2c0-40.8,0-81.6,0-122.4c40.1,0,80.3,0,120.4,0c0,40.8,0,81.6,0,122.4
				C116.1,157.2,75.9,157.2,35.8,157.2z M77,100.8c0.1,0.3,0.1,0.5,0.2,0.8c-1.8,0.6-3.5,1.3-5.4,1.7c-1.6,0.3-2.5,1-2.2,2.6
				c0.3,1.7,1.7,1.5,2.8,1.1c2.5-0.9,5.1-1.9,7.4-3.2c1.3-0.7,2-0.7,3.3,0c2.3,1.3,4.9,2.3,7.4,3.2c1.1,0.4,2.7,0.6,2.9-1.3
				c0.2-1.7-0.9-2.2-2.4-2.5c-1.4-0.2-2.7-0.7-4.1-1.1c0.1-0.3,0.1-0.6,0.2-0.9c1.5,0,3.1,0.2,4.6-0.1c0.6-0.1,1.5-1.2,1.6-1.8
				c0-0.6-1-1.4-1.7-1.6c-0.8-0.3-1.7-0.1-2.6-0.1c-1.6,0-3.2,0-4.8,0c0-0.3,0-0.6,0-0.9c2.2,0,4.5,0.1,6.7,0
				c1.6-0.1,2.5-1.5,1.6-2.7c-0.4-0.5-1.5-0.8-2.2-0.8c-2-0.1-4,0-6,0c0-0.3,0-0.6,0-0.9c1.9,0,3.8,0,5.7,0c1.2,0,2.6,0.3,2.7-1.7
				c0-2-1.4-1.7-2.6-1.7c-2,0-4.1,0-6.1,0c0-0.3,0-0.5,0-0.8c0.4-0.1,0.8-0.4,1.2-0.4c2.2,0,4.4,0,6.6-0.1c1.4,0,2.4-0.9,1.5-2
				c-1.1-1.4-2.9-2.2-4.5-3.1c-0.3-0.2-1.1-0.1-1.3,0.2c-1.7,2.4-4.2,1.4-6.5,1.5c-1.9,0.1-3.9,0.5-5.4-1.4
				c-0.3-0.3-1.5-0.2-2.1,0.1c-1,0.5-2,1.2-2.8,1.9c-0.5,0.4-1,1.3-0.9,1.6c0.2,0.5,1,1,1.6,1.2c0.9,0.2,1.9,0.1,2.8,0.1
				c1.6,0,3.2,0,4.9,0c0,0.4,0,0.8,0,1.2c-2.2,0-4.4,0-6.6,0c-1.2,0-2.5,0-2.5,1.7c0,1.7,1.2,1.7,2.5,1.7c2.1,0,4.2,0,6.4,0
				c0,0.2,0,0.5,0,0.7c-0.6,0.1-1.3,0.2-1.9,0.2c-1.4,0-2.8,0-4.2,0c-1.2,0.1-2.7-0.1-2.7,1.7c0,1.9,1.4,1.8,2.6,1.8
				c0.9,0,1.9,0,2.8,0c1.2,0,2.3,0.1,3.5,0.2c0,0.2,0,0.5-0.1,0.7c-2.3,0-4.6-0.1-6.9,0.1c-0.8,0.1-1.5,0.9-2.2,1.4
				c0.7,0.5,1.4,1.3,2.2,1.4C73.5,100.8,75.2,100.7,77,100.8z M96.3,94.9C96.3,94.9,96.3,94.9,96.3,94.9c0,3.3,0.1,6.6,0,9.8
				c0,1.7,0.6,2.6,2.4,2.6c5.7,0,11.4,0,17.1-0.1c3.1-0.1,4.3-1.3,4.3-4.3c0.1-5.9,0-11.9,0-17.8c0-1.8-0.7-2.5-2.5-2.5
				c-6.2,0.1-12.5,0.1-18.7,0c-2,0-2.8,0.9-2.7,2.8C96.3,88.7,96.3,91.8,96.3,94.9z"/>
			<path d="M77,100.8c-1.7-0.1-3.5,0-5.2-0.3c-0.8-0.1-1.4-0.9-2.2-1.4c0.7-0.5,1.5-1.3,2.2-1.4c2.3-0.2,4.6-0.1,6.9-0.1
				c0-0.2,0-0.5,0.1-0.7c-1.2-0.1-2.3-0.1-3.5-0.2c-0.9,0-1.9,0-2.8,0c-1.3,0-2.7,0-2.6-1.8c0-1.9,1.5-1.7,2.7-1.7
				c1.4-0.1,2.8,0,4.2,0c0.6,0,1.3-0.1,1.9-0.2c0-0.2,0-0.5,0-0.7c-2.1,0-4.2,0-6.4,0c-1.2,0-2.5,0-2.5-1.7c0-1.7,1.3-1.7,2.5-1.7
				c2.2,0,4.4,0,6.6,0c0-0.4,0-0.8,0-1.2c-1.6,0-3.2,0-4.9,0c-0.9,0-1.9,0.1-2.8-0.1c-0.6-0.1-1.4-0.6-1.6-1.2
				c-0.2-0.4,0.4-1.2,0.9-1.6c0.9-0.8,1.8-1.5,2.8-1.9c0.6-0.3,1.8-0.4,2.1-0.1c1.5,1.9,3.5,1.5,5.4,1.4c2.2-0.1,4.7,0.9,6.5-1.5
				c0.2-0.3,1-0.4,1.3-0.2c1.6,1,3.3,1.8,4.5,3.1c0.9,1.1-0.1,2-1.5,2c-2.2,0-4.4,0-6.6,0.1c-0.4,0-0.8,0.3-1.2,0.4
				c0,0.3,0,0.5,0,0.8c2,0,4.1,0,6.1,0c1.2,0,2.7-0.3,2.6,1.7c0,2-1.5,1.7-2.7,1.7c-1.9,0-3.8,0-5.7,0c0,0.3,0,0.6,0,0.9
				c2,0,4-0.1,6,0c0.8,0,1.8,0.3,2.2,0.8c0.9,1.2,0,2.7-1.6,2.7c-2.2,0.1-4.5,0-6.7,0c0,0.3,0,0.6,0,0.9c1.6,0,3.2,0,4.8,0
				c0.9,0,1.8-0.2,2.6,0.1c0.7,0.3,1.7,1.1,1.7,1.6c0,0.6-0.9,1.7-1.6,1.8c-1.5,0.3-3.1,0.1-4.6,0.1c-0.1,0.3-0.1,0.6-0.2,0.9
				c1.4,0.4,2.7,0.9,4.1,1.1c1.5,0.2,2.6,0.7,2.4,2.5c-0.2,1.9-1.8,1.7-2.9,1.3c-2.5-0.9-5.1-1.9-7.4-3.2c-1.3-0.7-2-0.7-3.3,0
				c-2.3,1.3-4.9,2.3-7.4,3.2c-1,0.4-2.5,0.6-2.8-1.1c-0.3-1.6,0.5-2.3,2.2-2.6c1.8-0.3,3.6-1.1,5.4-1.7C77.1,101.3,77,101,77,100.8
				z"/>
			<path d="M96.3,94.9c0-3.1,0.1-6.2,0-9.4c-0.1-2,0.7-2.9,2.7-2.8c6.2,0.1,12.5,0.1,18.7,0c1.8,0,2.5,0.7,2.5,2.5
				c-0.1,5.9,0,11.9,0,17.8c0,3-1.3,4.3-4.3,4.3c-5.7,0.1-11.4,0-17.1,0.1c-1.8,0-2.5-0.9-2.4-2.6C96.3,101.5,96.3,98.2,96.3,94.9
				C96.3,94.9,96.3,94.9,96.3,94.9z M108.3,103.3C108.3,103.3,108.3,103.3,108.3,103.3c2.2,0,4.4,0,6.5,0c1.3,0,1.9-0.5,1.9-1.8
				c0-4.4,0.1-8.9-0.1-13.3c0-0.6-1.2-1.7-1.8-1.7c-4.3-0.2-8.6-0.1-12.9-0.1c-1.3,0-2,0.5-2,1.9c0,4.4,0,8.7,0,13.1
				c0,1.4,0.7,1.9,2,1.9C104.1,103.3,106.2,103.3,108.3,103.3z"/>
			<path class="st1" d="M108.3,103.3c-2.1,0-4.2,0-6.3,0c-1.3,0-2.1-0.4-2-1.9c0-4.4,0-8.7,0-13.1c0-1.4,0.7-1.9,2-1.9
				c4.3,0,8.6-0.1,12.9,0.1c0.7,0,1.8,1.1,1.8,1.7c0.2,4.4,0.1,8.9,0.1,13.3c0,1.3-0.6,1.8-1.9,1.8
				C112.6,103.3,110.5,103.3,108.3,103.3C108.3,103.3,108.3,103.3,108.3,103.3z M105.2,92.7c-1,2.7-1.9,5.1-2.6,7.5
				c-0.2,0.7,0.1,1.6,0.2,2.4c1-0.2,2.3-0.2,2.9-0.8c0.8-0.8,1-2.2,1.5-3.4c0.7-2,1.3-3.9,2-5.9c0.3,0,0.6,0.1,0.9,0.1
				c0.1,0.7,0.3,1.4,0.4,2.1c0,1.8,0,3.6-0.1,5.4c-0.1,1.3,0.2,2.4,1.7,2.5c1.6,0.1,2-0.9,2.1-2.2c0.1-1.9,0-3.9,0.2-5.9
				c0.1-0.8,0.4-1.7,0.9-2.2c1-1.1,1.2-2,0.2-3c-1.2-1.2-2.5-3.3-4.4-1.7c-1.4,1.2-2.8,1.2-4.3,1.2c-1.5,0.1-3-0.1-4.4,0.1
				c-0.6,0.1-1.5,1.1-1.5,1.6c0.1,0.7,0.8,1.5,1.5,1.9C102.9,92.7,103.9,92.6,105.2,92.7z"/>
			<path d="M105.2,92.7c-1.3-0.1-2.2,0-2.9-0.3c-0.7-0.4-1.4-1.2-1.5-1.9c-0.1-0.5,0.9-1.5,1.5-1.6c1.4-0.2,3-0.1,4.4-0.1
				c1.5-0.1,2.8,0,4.3-1.2c1.9-1.6,3.2,0.5,4.4,1.7c1,1,0.8,2-0.2,3c-0.5,0.5-0.9,1.4-0.9,2.2c-0.2,1.9-0.1,3.9-0.2,5.9
				c-0.1,1.3-0.5,2.3-2.1,2.2c-1.6-0.1-1.8-1.1-1.7-2.5c0.1-1.8,0.1-3.6,0.1-5.4c0-0.7-0.2-1.4-0.4-2.1c-0.3,0-0.6-0.1-0.9-0.1
				c-0.7,2-1.3,3.9-2,5.9c-0.4,1.2-0.7,2.5-1.5,3.4c-0.6,0.6-1.9,0.6-2.9,0.8c-0.1-0.8-0.4-1.7-0.2-2.4
				C103.3,97.7,104.2,95.4,105.2,92.7z"/>
		</g>
	</g>
</g>
</svg>
